<svg width="21" height="20" viewBox="0 0 21 20" fill="none" xmlns="http://www.w3.org/2000/svg">
<g clip-path="url(#clip0_106_157)">
<path d="M7.16667 0C6.45942 0 5.78115 0.280952 5.28105 0.781049C4.78095 1.28115 4.5 1.95942 4.5 2.66667V4C4.5 4.70724 4.78095 5.38552 5.28105 5.88562C5.78115 6.38572 6.45942 6.66667 7.16667 6.66667C7.87391 6.66667 8.55219 6.38572 9.05229 5.88562C9.55238 5.38552 9.83333 4.70724 9.83333 4V2.66667C9.83333 1.95942 9.55238 1.28115 9.05229 0.781049C8.55219 0.280952 7.87391 0 7.16667 0ZM13.8333 0C13.1261 0 12.4478 0.280952 11.9477 0.781049C11.4476 1.28115 11.1667 1.95942 11.1667 2.66667V4C11.1667 4.70724 11.4476 5.38552 11.9477 5.88562C12.4478 6.38572 13.1261 6.66667 13.8333 6.66667C14.5406 6.66667 15.2189 6.38572 15.719 5.88562C16.219 5.38552 16.5 4.70724 16.5 4V2.66667C16.5 1.95942 16.219 1.28115 15.719 0.781049C15.2189 0.280952 14.5406 0 13.8333 0ZM3.16667 6.66667C2.45942 6.66667 1.78115 6.94762 1.28105 7.44772C0.780952 7.94781 0.5 8.62609 0.5 9.33333L0.5 10C0.5 10.7072 0.780952 11.3855 1.28105 11.8856C1.78115 12.3857 2.45942 12.6667 3.16667 12.6667C3.87391 12.6667 4.55219 12.3857 5.05229 11.8856C5.55238 11.3855 5.83333 10.7072 5.83333 10V9.33333C5.83333 8.62609 5.55238 7.94781 5.05229 7.44772C4.55219 6.94762 3.87391 6.66667 3.16667 6.66667ZM17.8333 6.66667C17.1261 6.66667 16.4478 6.94762 15.9477 7.44772C15.4476 7.94781 15.1667 8.62609 15.1667 9.33333V10C15.1667 10.7072 15.4476 11.3855 15.9477 11.8856C16.4478 12.3857 17.1261 12.6667 17.8333 12.6667C18.5406 12.6667 19.2189 12.3857 19.719 11.8856C20.219 11.3855 20.5 10.7072 20.5 10V9.33333C20.5 8.62609 20.219 7.94781 19.719 7.44772C19.2189 6.94762 18.5406 6.66667 17.8333 6.66667ZM13.3173 10.372C12.975 9.95616 12.5448 9.62127 12.0577 9.39136C11.5706 9.16144 11.0386 9.04221 10.5 9.04221C9.96136 9.04221 9.4294 9.16144 8.9423 9.39136C8.4552 9.62127 8.02503 9.95616 7.68267 10.372L3.79333 15.096C2.18133 17.052 3.57333 20 6.10667 20C6.46933 20 6.82667 19.916 7.14933 19.7533L7.62933 19.5133C8.52064 19.0677 9.50348 18.8356 10.5 18.8356C11.4965 18.8356 12.4794 19.0677 13.3707 19.5133L13.8507 19.7533C14.1733 19.916 14.5307 20 14.8933 20C17.4267 20 18.8187 17.052 17.208 15.096L13.3173 10.372Z" fill="white"/>
</g>
<defs>
<clipPath id="clip0_106_157">
<rect width="20" height="20" fill="white" transform="translate(0.5)"/>
</clipPath>
</defs>
</svg>
